<?xml version="1.0" standalone="no"?><!DOCTYPE svg PUBLIC "-//W3C//DTD SVG 1.1//EN" "http://www.w3.org/Graphics/SVG/1.1/DTD/svg11.dtd"><svg t="1642399331710" class="icon" viewBox="0 0 1024 1024" version="1.1" xmlns="http://www.w3.org/2000/svg" p-id="2760" xmlns:xlink="http://www.w3.org/1999/xlink" width="200" height="200"><defs><style type="text/css"></style></defs><path d="M222.048 210.957c9.701 9.702 25.429 9.702 35.13 0 0.048-0.048 0.092-0.099 0.14-0.147 147.693-125.046 365.091-125.1 512.826-0.126 0.088 0.09 0.17 0.184 0.26 0.273 9.701 9.702 25.43 9.702 35.129 0 9.701-9.699 9.701-25.428 0-35.127l-0.002-0.001 0.142-0.141c-167.36-144.525-416.408-144.528-583.767-0.004l0.145 0.145-0.002 0.001c-9.701 9.699-9.701 25.428-0.001 35.127zM805.532 817.86c-9.699-9.7-25.428-9.7-35.129 0-0.092 0.092-0.178 0.188-0.268 0.282-145.666 123.218-359.059 124.893-506.579 5.05l-0.181 0.181c-9.735-9.202-25.084-9.044-34.616 0.488-9.533 9.534-9.691 24.885-0.487 34.615l-0.026 0.026c0.075 0.062 0.151 0.121 0.226 0.184 0.097 0.1 0.189 0.203 0.288 0.303a24.873 24.873 0 0 0 4.349 3.466c167.116 135.104 408.896 132.014 572.566-9.322l-0.144-0.144 0.001-0.001c9.701-9.697 9.701-25.425 0-35.128z m95.899-432.758c-77.688-77.605-203.646-77.605-281.335 0L512.337 492.744 404.695 385.102c-77.605-77.605-203.428-77.605-281.033 0-77.604 77.604-77.604 203.426 0 281.031 77.605 77.607 203.428 77.607 281.033 0L512.337 558.49l107.759 107.643c77.688 77.607 203.647 77.607 281.335 0 77.689-77.606 77.689-203.428 0-281.031zM369.566 631.004c-58.203 58.202-152.57 58.202-210.774 0-58.204-58.203-58.204-152.569 0-210.774 58.204-58.204 152.571-58.204 210.774 0l105.387 105.388-105.387 105.386z m496.699 0c-58.267 58.202-152.734 58.202-211.002 0l-105.5-105.387 105.5-105.388c58.268-58.204 152.735-58.204 211.002 0 58.265 58.206 58.265 152.572 0 210.775z" fill="#707070" p-id="2761"></path></svg>